<svg width="299" height="64" viewBox="0 0 299 64" fill="none" xmlns="http://www.w3.org/2000/svg">
<path d="M65.7578 11.6875C65.7578 11.0312 65.9922 10.4922 66.4609 10.0703C66.9453 9.63281 67.5156 9.41406 68.1719 9.41406C68.9062 9.41406 69.5078 9.71094 69.9766 10.3047L87.6719 34.3281V11.7578C87.6719 11.1328 87.8984 10.6016 88.3516 10.1641C88.8203 9.71094 89.375 9.48438 90.0156 9.48438C90.6562 9.48438 91.2031 9.71094 91.6562 10.1641C92.125 10.6016 92.3594 11.1328 92.3594 11.7578L92.3359 41.1484C92.3359 41.8047 92.0938 42.3516 91.6094 42.7891C91.1406 43.2109 90.5781 43.4219 89.9219 43.4219C89.1875 43.4219 88.5859 43.1094 88.1172 42.4844L70.4453 18.4844V41.125C70.4453 41.75 70.2109 42.2891 69.7422 42.7422C69.2891 43.1797 68.7422 43.3984 68.1016 43.3984C67.4609 43.3984 66.9062 43.1797 66.4375 42.7422C65.9844 42.2891 65.7578 41.75 65.7578 41.125V11.6875ZM107.781 17.4062C109.859 17.4062 111.766 17.9219 113.5 18.9531C115.234 19.9844 116.625 21.375 117.672 23.125C118.734 24.8594 119.266 26.7891 119.266 28.9141C119.266 29.3516 119.242 29.7969 119.195 30.25C119.133 30.8281 118.867 31.3203 118.398 31.7266C117.945 32.1172 117.43 32.3125 116.852 32.3125L100.469 32.3359C100.734 33.4609 101.234 34.5156 101.969 35.5C102.703 36.4844 103.594 37.2812 104.641 37.8906C105.703 38.5 106.859 38.8047 108.109 38.8047C109.453 38.8047 110.656 38.4766 111.719 37.8203C112.781 37.1641 113.609 36.4062 114.203 35.5469C114.391 35.25 114.672 35 115.047 34.7969C115.438 34.5938 115.805 34.4922 116.148 34.4922C116.789 34.4922 117.336 34.7266 117.789 35.1953C118.258 35.6641 118.492 36.2188 118.492 36.8594C118.492 37.3594 118.352 37.8047 118.07 38.1953C117.102 39.6172 115.766 40.8516 114.062 41.8984C112.375 42.9297 110.414 43.4453 108.18 43.4453C106.383 43.4453 104.711 43.0938 103.164 42.3906C101.633 41.6875 100.297 40.7266 99.1562 39.5078C98.0156 38.2891 97.125 36.8906 96.4844 35.3125C95.8594 33.7188 95.5469 32.0391 95.5469 30.2734C95.5469 28.5703 95.8594 26.9531 96.4844 25.4219C97.1094 23.875 97.9766 22.5 99.0859 21.2969C100.211 20.0938 101.516 19.1484 103 18.4609C104.484 17.7578 106.078 17.4062 107.781 17.4062ZM114.438 27.625C114.141 26.0938 113.375 24.7891 112.141 23.7109C110.906 22.6328 109.453 22.0938 107.781 22.0938C106.078 22.0938 104.57 22.6484 103.258 23.7578C101.961 24.8672 101.086 26.1641 100.633 27.6484L114.438 27.625ZM139.234 39.8359C138.391 40.6484 137.383 41.4688 136.211 42.2969C135.039 43.1094 133.664 43.5156 132.086 43.5156C130.039 43.5156 128.336 42.9766 126.977 41.8984C125.617 40.8047 124.617 39.5391 123.977 38.1016C123.477 36.9609 123.172 35.8359 123.062 34.7266C122.969 33.6016 122.922 32.5469 122.922 31.5625V19.7266C122.922 19.0859 123.148 18.5391 123.602 18.0859C124.07 17.6172 124.625 17.3828 125.266 17.3828C125.906 17.3828 126.453 17.6172 126.906 18.0859C127.375 18.5391 127.609 19.0859 127.609 19.7266V31.5625C127.609 32.4688 127.648 33.3203 127.727 34.1172C127.82 34.8984 128 35.5859 128.266 36.1797C128.578 36.8672 129.047 37.4844 129.672 38.0312C130.297 38.5625 131.086 38.8281 132.039 38.8281C134.352 38.8281 136.125 37.9453 137.359 36.1797C138.609 34.4141 139.227 32.0312 139.211 29.0312L139.188 19.6797C139.188 19.0391 139.414 18.4922 139.867 18.0391C140.336 17.5703 140.891 17.3359 141.531 17.3359C142.188 17.3359 142.742 17.5703 143.195 18.0391C143.648 18.4922 143.875 19.0469 143.875 19.7031L143.922 41.2422C143.922 41.8828 143.742 42.4375 143.383 42.9062C143.039 43.3594 142.547 43.5859 141.906 43.5859C141.266 43.5859 140.773 43.3594 140.43 42.9062C140.086 42.4375 139.82 41.8828 139.633 41.2422L139.234 39.8359ZM164.008 20.2891C164.008 21.5391 163.406 22.2344 162.203 22.375C161.766 22.4219 161.211 22.2812 160.539 21.9531C159.867 21.6094 159.188 21.4375 158.5 21.4375C157.141 21.4375 156.062 21.7891 155.266 22.4922C154.469 23.1797 153.898 24.1094 153.555 25.2812C153.211 26.4531 153.039 27.7656 153.039 29.2188V41.3125C153.039 42 152.828 42.5469 152.406 42.9531C152 43.3594 151.43 43.5625 150.695 43.5625C149.977 43.5625 149.406 43.3594 148.984 42.9531C148.562 42.5469 148.352 41.9922 148.352 41.2891V19.7031C148.352 19 148.523 18.4219 148.867 17.9688C149.227 17.5156 149.711 17.2891 150.32 17.2891C150.68 17.2891 151.094 17.4453 151.562 17.7578C152.047 18.0547 152.383 18.5703 152.57 19.3047L152.805 20.9922C153.008 20.5547 153.398 20.0469 153.977 19.4688C154.555 18.8906 155.242 18.3906 156.039 17.9688C156.836 17.5312 157.664 17.3125 158.523 17.3125C160.117 17.3125 161.43 17.5 162.461 17.875C163.492 18.2344 164.008 19.0391 164.008 20.2891ZM177.438 17.3359C179.234 17.3359 180.906 17.6797 182.453 18.3672C184.016 19.0547 185.383 20.0078 186.555 21.2266C187.727 22.4453 188.641 23.8438 189.297 25.4219C189.969 27 190.305 28.6797 190.305 30.4609C190.305 32.2109 189.969 33.875 189.297 35.4531C188.625 37.0156 187.695 38.3984 186.508 39.6016C185.336 40.7891 183.969 41.7266 182.406 42.4141C180.859 43.1016 179.203 43.4453 177.438 43.4453C175.688 43.4453 174.031 43.1094 172.469 42.4375C170.922 41.7656 169.555 40.8359 168.367 39.6484C167.195 38.4609 166.273 37.0859 165.602 35.5234C164.93 33.9453 164.594 32.2578 164.594 30.4609C164.594 28.6797 164.93 27 165.602 25.4219C166.273 23.8438 167.195 22.4531 168.367 21.25C169.555 20.0312 170.922 19.0781 172.469 18.3906C174.016 17.6875 175.672 17.3359 177.438 17.3359ZM169.328 30.5078C169.328 32.0234 169.695 33.4062 170.43 34.6562C171.18 35.8906 172.172 36.875 173.406 37.6094C174.641 38.3438 175.992 38.7109 177.461 38.7109C178.961 38.7109 180.32 38.3359 181.539 37.5859C182.773 36.8203 183.75 35.8125 184.469 34.5625C185.203 33.3125 185.57 31.9453 185.57 30.4609C185.57 28.9453 185.211 27.5547 184.492 26.2891C183.773 25.0078 182.797 23.9844 181.562 23.2188C180.344 22.4531 178.969 22.0703 177.438 22.0703C175.891 22.0703 174.508 22.4609 173.289 23.2422C172.07 24.0078 171.102 25.0312 170.383 26.3125C169.68 27.5781 169.328 28.9766 169.328 30.5078ZM221.594 30.5547C222.156 30.5547 222.664 30.7812 223.117 31.2344C223.586 31.6719 223.82 32.1641 223.82 32.7109C223.82 33.1484 223.742 33.5234 223.586 33.8359C222.805 35.5547 221.695 37.1562 220.258 38.6406C218.836 40.1094 217.141 41.2891 215.172 42.1797C213.203 43.0703 210.992 43.5156 208.539 43.5156C206.117 43.5156 203.93 43.0547 201.977 42.1328C200.023 41.2109 198.352 39.9531 196.961 38.3594C195.586 36.75 194.523 34.9062 193.773 32.8281C193.039 30.7344 192.672 28.5234 192.672 26.1953C192.672 23.8984 193.047 21.7109 193.797 19.6328C194.547 17.5547 195.617 15.7188 197.008 14.125C198.398 12.5156 200.062 11.25 202 10.3281C203.938 9.40625 206.094 8.94531 208.469 8.94531C210.875 8.94531 213.055 9.375 215.008 10.2344C216.977 11.0781 218.68 12.2109 220.117 13.6328C221.57 15.0391 222.703 16.5859 223.516 18.2734C223.688 18.6016 223.773 18.9453 223.773 19.3047C223.773 19.8828 223.562 20.4141 223.141 20.8984C222.734 21.3672 222.258 21.6016 221.711 21.6016C221.18 21.6016 220.695 21.4922 220.258 21.2734C219.836 21.0391 219.516 20.6953 219.297 20.2422C218.422 18.4297 217.047 16.875 215.172 15.5781C213.312 14.2813 211.078 13.6328 208.469 13.6328C206.203 13.6328 204.234 14.2109 202.562 15.3672C200.906 16.5234 199.625 18.0625 198.719 19.9844C197.812 21.8906 197.359 23.9766 197.359 26.2422C197.359 28.5234 197.805 30.6172 198.695 32.5234C199.602 34.4297 200.883 35.9531 202.539 37.0938C204.211 38.2344 206.195 38.8047 208.492 38.8047C210.211 38.8047 211.781 38.4922 213.203 37.8672C214.641 37.2266 215.883 36.3828 216.93 35.3359C217.977 34.2891 218.773 33.1641 219.32 31.9609C219.742 31.0234 220.5 30.5547 221.594 30.5547ZM242.852 20.2891C242.852 21.5391 242.25 22.2344 241.047 22.375C240.609 22.4219 240.055 22.2812 239.383 21.9531C238.711 21.6094 238.031 21.4375 237.344 21.4375C235.984 21.4375 234.906 21.7891 234.109 22.4922C233.312 23.1797 232.742 24.1094 232.398 25.2812C232.055 26.4531 231.883 27.7656 231.883 29.2188V41.3125C231.883 42 231.672 42.5469 231.25 42.9531C230.844 43.3594 230.273 43.5625 229.539 43.5625C228.82 43.5625 228.25 43.3594 227.828 42.9531C227.406 42.5469 227.195 41.9922 227.195 41.2891V19.7031C227.195 19 227.367 18.4219 227.711 17.9688C228.07 17.5156 228.555 17.2891 229.164 17.2891C229.523 17.2891 229.938 17.4453 230.406 17.7578C230.891 18.0547 231.227 18.5703 231.414 19.3047L231.648 20.9922C231.852 20.5547 232.242 20.0469 232.82 19.4688C233.398 18.8906 234.086 18.3906 234.883 17.9688C235.68 17.5312 236.508 17.3125 237.367 17.3125C238.961 17.3125 240.273 17.5 241.305 17.875C242.336 18.2344 242.852 19.0391 242.852 20.2891ZM256.281 17.3359C258.078 17.3359 259.75 17.6797 261.297 18.3672C262.859 19.0547 264.227 20.0078 265.398 21.2266C266.57 22.4453 267.484 23.8438 268.141 25.4219C268.812 27 269.148 28.6797 269.148 30.4609C269.148 32.2109 268.812 33.875 268.141 35.4531C267.469 37.0156 266.539 38.3984 265.352 39.6016C264.18 40.7891 262.812 41.7266 261.25 42.4141C259.703 43.1016 258.047 43.4453 256.281 43.4453C254.531 43.4453 252.875 43.1094 251.312 42.4375C249.766 41.7656 248.398 40.8359 247.211 39.6484C246.039 38.4609 245.117 37.0859 244.445 35.5234C243.773 33.9453 243.438 32.2578 243.438 30.4609C243.438 28.6797 243.773 27 244.445 25.4219C245.117 23.8438 246.039 22.4531 247.211 21.25C248.398 20.0312 249.766 19.0781 251.312 18.3906C252.859 17.6875 254.516 17.3359 256.281 17.3359ZM248.172 30.5078C248.172 32.0234 248.539 33.4062 249.273 34.6562C250.023 35.8906 251.016 36.875 252.25 37.6094C253.484 38.3438 254.836 38.7109 256.305 38.7109C257.805 38.7109 259.164 38.3359 260.383 37.5859C261.617 36.8203 262.594 35.8125 263.312 34.5625C264.047 33.3125 264.414 31.9453 264.414 30.4609C264.414 28.9453 264.055 27.5547 263.336 26.2891C262.617 25.0078 261.641 23.9844 260.406 23.2188C259.188 22.4531 257.812 22.0703 256.281 22.0703C254.734 22.0703 253.352 22.4609 252.133 23.2422C250.914 24.0078 249.945 25.0312 249.227 26.3125C248.523 27.5781 248.172 28.9766 248.172 30.5078ZM297.508 30.4375C297.508 32.2031 297.18 33.9219 296.523 35.5938C295.883 37.2656 294.914 38.7422 293.617 40.0234C292.477 41.1328 291.164 41.9922 289.68 42.6016C288.195 43.2109 286.656 43.5156 285.062 43.5156C283.438 43.5156 281.992 43.1719 280.727 42.4844C279.477 41.7969 278.344 40.8672 277.328 39.6953V49.5625C277.328 50.2031 277.094 50.75 276.625 51.2031C276.172 51.6719 275.625 51.9062 274.984 51.9062C274.344 51.9062 273.789 51.6719 273.32 51.2031C272.867 50.75 272.641 50.2031 272.641 49.5625V19.6328C272.641 18.9922 272.867 18.4453 273.32 17.9922C273.789 17.5234 274.344 17.2891 274.984 17.2891C275.625 17.2891 276.102 17.5234 276.414 17.9922C276.742 18.4453 276.953 18.9922 277.047 19.6328L277.328 21.5312C278.219 20.25 279.391 19.2422 280.844 18.5078C282.312 17.7734 283.773 17.4062 285.227 17.4062C286.992 17.4062 288.617 17.7578 290.102 18.4609C291.602 19.1641 292.906 20.125 294.016 21.3438C295.125 22.5469 295.984 23.9297 296.594 25.4922C297.203 27.0547 297.508 28.7031 297.508 30.4375ZM285.273 22.0938C284.258 22.0938 283.25 22.3203 282.25 22.7734C281.25 23.2109 280.398 23.8203 279.695 24.6016C278.992 25.3672 278.445 26.2812 278.055 27.3438C277.68 28.3906 277.492 29.4609 277.492 30.5547C277.492 32.0547 277.82 33.4375 278.477 34.7031C279.133 35.9688 280.039 36.9844 281.195 37.75C282.352 38.5156 283.672 38.8984 285.156 38.8984C286.641 38.8984 287.961 38.5 289.117 37.7031C290.273 36.8906 291.18 35.8438 291.836 34.5625C292.508 33.2656 292.844 31.8906 292.844 30.4375C292.844 28.9688 292.516 27.6016 291.859 26.3359C291.203 25.0703 290.305 24.0469 289.164 23.2656C288.023 22.4844 286.727 22.0938 285.273 22.0938Z" fill="white"/>
<path d="M20.125 0C23.5047 0 26.25 2.52121 26.25 5.625V45.8036C26.25 48.9074 23.5047 51.4286 20.125 51.4286C16.9641 51.4286 14.3609 49.2288 14.0328 46.3962C13.4641 46.5368 12.8625 46.6071 12.25 46.6071C8.38906 46.6071 5.25 43.7243 5.25 40.1786C5.25 39.4353 5.39219 38.7121 5.64375 38.0491C2.34062 36.904 0 33.971 0 30.5357C0 27.3315 2.04531 24.5592 5.00938 23.2734C4.05781 22.1786 3.5 20.7924 3.5 19.2857C3.5 16.202 5.8625 13.6306 9.0125 12.9978C8.8375 12.4453 8.75 11.8527 8.75 11.25C8.75 8.24665 11.0031 5.7154 14.0328 5.01228C14.3609 2.19978 16.9641 0 20.125 0ZM35.875 0C39.0359 0 41.6281 2.19978 41.9672 5.01228C45.0078 5.7154 47.25 8.23661 47.25 11.25C47.25 11.8527 47.1625 12.4453 46.9875 12.9978C50.1375 13.6205 52.5 16.202 52.5 19.2857C52.5 20.7924 51.9422 22.1786 50.9906 23.2734C53.9547 24.5592 56 27.3315 56 30.5357C56 33.971 53.6594 36.904 50.3563 38.0491C50.6078 38.7121 50.75 39.4353 50.75 40.1786C50.75 43.7243 47.6109 46.6071 43.75 46.6071C43.1375 46.6071 42.5359 46.5368 41.9672 46.3962C41.6391 49.2288 39.0359 51.4286 35.875 51.4286C32.4953 51.4286 29.75 48.9074 29.75 45.8036V5.625C29.75 2.52121 32.4953 0 35.875 0Z" fill="white"/>
</svg>
